<?xml version="1.0" encoding="UTF-8" standalone="no"?>
<!-- Created with Inkscape (http://www.inkscape.org/) -->
<svg
   xmlns:dc="http://purl.org/dc/elements/1.1/"
   xmlns:cc="http://web.resource.org/cc/"
   xmlns:rdf="http://www.w3.org/1999/02/22-rdf-syntax-ns#"
   xmlns:svg="http://www.w3.org/2000/svg"
   xmlns="http://www.w3.org/2000/svg"
   xmlns:sodipodi="http://sodipodi.sourceforge.net/DTD/sodipodi-0.dtd"
   xmlns:inkscape="http://www.inkscape.org/namespaces/inkscape"
   id="svg2"
   sodipodi:version="0.32"
   inkscape:version="0.44.1"
   width="548.75818"
   height="308.70233"
   sodipodi:docbase="E:\SVG_Clipart"
   sodipodi:docname="bus.svg"
   version="1.0">
  <metadata
     id="metadata7">
    <rdf:RDF>
      <cc:Work
         rdf:about="">
        <dc:format>image/svg+xml</dc:format>
        <dc:type
           rdf:resource="http://purl.org/dc/dcmitype/StillImage" />
      </cc:Work>
    </rdf:RDF>
  </metadata>
  <defs
     id="defs5" />
  <sodipodi:namedview
     inkscape:window-height="975"
     inkscape:window-width="1280"
     inkscape:pageshadow="2"
     inkscape:pageopacity="0.0"
     borderopacity="1.0"
     bordercolor="#666666"
     pagecolor="#ffffff"
     id="base"
     inkscape:zoom="1.4215638"
     inkscape:cx="270.7147"
     inkscape:cy="220.73705"
     inkscape:window-x="-4"
     inkscape:window-y="-4"
     inkscape:current-layer="svg2" />
  <g
     id="g3018"
     transform="translate(-62.40362,-327.4562)">
    <path
       sodipodi:nodetypes="cssss"
       id="path3979"
       d="M 227.05295,543.41033 C 207.47032,539.19777 178.77949,566.29465 168.76047,588.95131 C 158.74145,611.60798 167.39424,629.82434 186.97687,634.0369 C 206.55951,638.24945 237.07198,628.45815 247.091,605.80149 C 257.11002,583.14482 246.63559,547.62284 227.05295,543.41033 z "
       style="fill:#00c100;fill-opacity:1;fill-rule:evenodd;stroke:black;stroke-width:2.33466268;stroke-linecap:butt;stroke-linejoin:miter;stroke-miterlimit:4;stroke-dasharray:none;stroke-opacity:1" />
    <path
       sodipodi:nodetypes="cssss"
       id="path3981"
       d="M 511.71882,542.31203 C 492.13622,538.09952 463.44539,565.19639 453.42637,587.85306 C 443.40735,610.50972 452.06014,628.72609 471.64277,632.93865 C 491.22541,637.1512 521.73782,627.3599 531.75686,604.70324 C 541.77586,582.04657 531.30146,546.52459 511.71882,542.31203 z "
       style="fill:#00c100;fill-opacity:1;fill-rule:evenodd;stroke:black;stroke-width:2.33466268;stroke-linecap:butt;stroke-linejoin:miter;stroke-miterlimit:4;stroke-dasharray:none;stroke-opacity:1" />
    <path
       sodipodi:nodetypes="ccccccccccccccccccccccccccccccccs"
       d="M 116.65442,584.33248 L 116.01037,562.43485 L 121.80679,558.57058 L 118.58656,546.97774 L 122.45084,545.0456 L 123.09489,523.79202 L 116.65442,521.85988 L 117.29846,512.84323 L 123.73893,508.97895 C 129.42802,467.33058 130.60877,422.78398 145.63653,387.89813 L 142.4163,379.52548 C 185.13809,343.24418 281.95983,338.52115 361.3923,332.51004 C 539.7317,315.26997 599.90438,359.77473 608.06233,380.16952 L 584.87662,385.96599 L 580.36829,403.35524 L 590.67303,487.08137 L 604.19806,485.79328 L 609.99447,494.16588 L 595.82541,504.47063 L 586.16471,547.62179 L 593.89327,548.26583 L 590.02899,582.40034 L 586.16471,597.85746 L 535.28499,616.85685 C 518.00304,599.3602 561.90564,561.57611 501.15053,549.55392 C 478.60888,546.76304 462.5077,578.10667 448.9827,606.23006 C 381.57244,610.52369 309.65385,611.59713 241.59955,608.1622 C 242.45828,597.21341 269.5343,563.18941 224.21028,551.48606 C 174.07879,542.83326 191.79324,584.97653 169.46627,598.5015 L 113.43418,594.63722 L 116.65442,584.33248 z M 608.45374,380.92827 C 604.49957,408.71534 604.79856,458.56921 603.58017,485.11274"
       style="fill:red;fill-opacity:1;fill-rule:evenodd;stroke:black;stroke-width:2.33466268;stroke-linecap:butt;stroke-linejoin:miter;stroke-miterlimit:4;stroke-opacity:1"
       id="path3961" />
    <path
       sodipodi:nodetypes="cssss"
       id="path5731"
       d="M 497.56829,577.85283 C 492.66145,576.79733 485.47245,583.58694 482.962,589.26397 C 480.45154,594.94105 482.61966,599.5055 487.52646,600.56099 C 492.43325,601.61654 500.07874,599.16317 502.58919,593.4861 C 505.09964,587.80907 502.47506,578.90837 497.56829,577.85283 z "
       style="fill:#00c100;fill-opacity:1;fill-rule:evenodd;stroke:black;stroke-width:2.33466268;stroke-linecap:butt;stroke-linejoin:miter;stroke-miterlimit:4;stroke-dasharray:none;stroke-opacity:1" />
    <path
       sodipodi:nodetypes="cccc"
       id="path3965"
       d="M 555.44893,606.05496 C 554.91223,554.9605 592.05223,593.71073 601.49827,579.00501 C 607.50939,578.68296 605.1479,592.52998 600.53222,600.58054 C 597.31199,608.84584 563.82153,606.48431 555.44893,606.05496 z "
       style="fill:#cd0000;fill-opacity:1;fill-rule:evenodd;stroke:black;stroke-width:2.33466268;stroke-linecap:butt;stroke-linejoin:miter;stroke-miterlimit:4;stroke-dasharray:none;stroke-opacity:1" />
    <path
       sodipodi:nodetypes="cccc"
       id="path3967"
       d="M 603.35552,543.90441 C 608.72259,535.63911 609.90329,515.13701 603.67752,506.87171 C 592.19203,489.48241 584.89282,541.97227 587.8984,546.15855 C 597.23705,547.01734 594.98291,544.33376 603.35552,543.90441 z "
       style="fill:#cd0000;fill-opacity:1;fill-rule:evenodd;stroke:black;stroke-width:2.33466268;stroke-linecap:butt;stroke-linejoin:miter;stroke-miterlimit:4;stroke-dasharray:none;stroke-opacity:1" />
    <path
       sodipodi:nodetypes="ccccc"
       id="path3969"
       d="M 226.78646,399.16892 C 225.069,429.86849 223.35155,460.56807 221.63409,491.26765 C 199.19978,496.20537 178.37559,494.38054 149.50082,498.35216 C 151.00359,462.92961 150.89625,429.43915 162.70378,399.81296 C 184.06468,399.59831 205.42557,399.38361 226.78646,399.16892 z "
       style="fill:white;fill-opacity:1;fill-rule:evenodd;stroke:black;stroke-width:2.33466268;stroke-linecap:butt;stroke-linejoin:miter;stroke-miterlimit:4;stroke-dasharray:none;stroke-opacity:1" />
    <path
       sodipodi:nodetypes="ccccc"
       id="path3971"
       d="M 318.24114,393.0505 C 314.59154,421.17389 313.19611,495.02458 307.93639,492.23374 C 289.04435,493.62919 260.16957,491.1603 231.29479,492.23374 C 232.79757,456.81114 234.62237,426.54091 235.80312,394.98264 C 257.16402,394.76794 296.88025,393.26515 318.24114,393.0505 z "
       style="fill:white;fill-opacity:1;fill-rule:evenodd;stroke:black;stroke-width:2.33466268;stroke-linecap:butt;stroke-linejoin:miter;stroke-miterlimit:4;stroke-dasharray:none;stroke-opacity:1" />
    <path
       sodipodi:nodetypes="ccccc"
       id="path3973"
       d="M 399.7131,391.7624 C 397.99564,422.46198 397.8883,459.60203 396.17084,490.3016 C 373.73654,495.23928 347.75997,494.05853 318.56317,490.3016 C 320.06595,454.879 321.56872,429.76115 325.00365,394.01654 C 346.36454,393.80189 378.35221,391.97706 399.7131,391.7624 z "
       style="fill:white;fill-opacity:1;fill-rule:evenodd;stroke:black;stroke-width:2.33466268;stroke-linecap:butt;stroke-linejoin:miter;stroke-miterlimit:4;stroke-dasharray:none;stroke-opacity:1" />
    <path
       sodipodi:nodetypes="ccccc"
       id="path3975"
       d="M 489.55767,390.47431 C 487.84021,421.17389 487.41084,462.17821 481.50708,491.9117 C 459.07277,496.84942 431.80811,492.4484 403.25536,490.62361 C 404.75814,455.20105 403.3627,421.71059 407.11964,389.50822 C 428.48054,389.29352 468.19677,390.68896 489.55767,390.47431 z "
       style="fill:white;fill-opacity:1;fill-rule:evenodd;stroke:black;stroke-width:2.33466268;stroke-linecap:butt;stroke-linejoin:miter;stroke-miterlimit:4;stroke-dasharray:none;stroke-opacity:1" />
    <path
       sodipodi:nodetypes="ccccc"
       id="path3977"
       d="M 567.01301,390.0836 C 572.12666,423.51565 571.32005,456.9477 569.60257,487.64728 C 547.16829,496.22826 523.26281,490.67254 494.38802,491.9117 C 495.89081,456.48914 491.91917,419.77845 496.96421,388.22013 C 518.32509,388.00543 545.19664,386.19959 567.01301,390.0836 z "
       style="fill:white;fill-opacity:1;fill-rule:evenodd;stroke:black;stroke-width:2.33466268;stroke-linecap:butt;stroke-linejoin:miter;stroke-miterlimit:4;stroke-dasharray:none;stroke-opacity:1" />
    <path
       sodipodi:nodetypes="ccccccc"
       id="path6606"
       d="M 163.92743,495.45732 C 159.06973,495.76092 154.21202,497.6747 149.35431,497.9783 C 153.3012,465.79598 152.09571,430.71547 161.19497,399.82125 C 182.44744,399.51765 205.63205,399.21401 226.88452,398.91041 C 226.58091,405.28614 224.34517,411.66188 224.04156,418.03761 C 207.03959,411.59715 189.39356,411.59715 173.03563,418.03761 C 164.84719,443.8442 161.16708,467.7186 163.92743,495.45732 z "
       style="fill:black;fill-opacity:1;fill-rule:evenodd;stroke:black;stroke-width:0.45777699px;stroke-linecap:butt;stroke-linejoin:miter;stroke-opacity:1" />
    <path
       sodipodi:nodetypes="ccccccc"
       id="path7481"
       d="M 237.68883,491.33961 C 232.83112,491.64321 236.99007,490.98081 232.13237,491.28441 C 233.82508,458.78004 236.8059,427.56391 235.92243,395.05954 C 257.1749,394.75595 296.78271,393.80826 318.03519,393.50466 C 317.73158,399.88039 314.52976,418.17096 314.22615,424.5467 C 324.9182,388.8021 264.76507,404.58126 247.7631,404.58126 C 240.54072,416.21882 236.86062,446.53368 237.68883,491.33961 z "
       style="fill:black;fill-opacity:1;fill-rule:evenodd;stroke:black;stroke-width:0.45777699px;stroke-linecap:butt;stroke-linejoin:miter;stroke-opacity:1" />
    <path
       sodipodi:nodetypes="ccccccc"
       id="path7483"
       d="M 329.38807,490.86137 C 324.53036,491.16497 323.21491,490.50257 318.35721,490.80617 C 322.30409,458.62385 321.74265,426.44158 325.68954,394.25926 C 346.94201,393.95566 378.49923,392.36392 399.7517,392.06033 C 399.44809,398.43606 398.82246,398.37133 398.51885,404.74707 C 377.00855,395.08632 343.26135,398.3066 332.37782,404.74707 C 325.79949,432.48579 325.98367,464.73279 329.38807,490.86137 z "
       style="fill:black;fill-opacity:1;fill-rule:evenodd;stroke:black;stroke-width:0.45777699px;stroke-linecap:butt;stroke-linejoin:miter;stroke-opacity:1" />
    <path
       sodipodi:nodetypes="ccccccc"
       id="path7485"
       d="M 415.31378,490.44782 C 410.45607,490.75142 407.87541,489.23338 403.01771,489.53698 C 406.96459,457.35466 404.08033,421.52913 408.02721,389.34681 C 429.27967,389.04321 467.65285,390.99644 488.90531,390.69284 C 488.60171,397.06857 488.02757,407.56317 487.72398,413.93891 C 488.48299,390.2576 429.58329,398.45497 412.58132,398.45497 C 409.54525,424.26155 405.14295,464.64124 415.31378,490.44782 z "
       style="fill:black;fill-opacity:1;fill-rule:evenodd;stroke:black;stroke-width:0.45777699px;stroke-linecap:butt;stroke-linejoin:miter;stroke-opacity:1" />
    <path
       sodipodi:nodetypes="ccccccc"
       id="path7487"
       d="M 509.58365,493.18029 C 504.72595,493.48389 499.86825,493.78753 495.01055,494.09113 C 496.22494,461.90881 493.79612,421.07373 497.74298,388.89141 C 518.99546,388.58781 537.51547,387.37338 566.50992,389.80225 C 566.20632,396.17798 568.17975,395.72254 567.87615,402.09828 C 551.32957,387.52517 520.20989,395.72254 503.20792,395.72254 C 500.17185,421.52913 497.13578,471.01697 509.58365,493.18029 z "
       style="fill:black;fill-opacity:1;fill-rule:evenodd;stroke:black;stroke-width:0.45777699px;stroke-linecap:butt;stroke-linejoin:miter;stroke-opacity:1" />
    <path
       sodipodi:nodetypes="cccc"
       id="path9237"
       d="M 539.413,610.39901 C 547.53451,576.62275 548.3694,541.02487 494.55511,546.64161 C 439.3746,551.65111 460.93068,578.86742 442.41067,596.17299 C 431.32903,604.59806 417.05952,597.41984 407.1164,601.2908"
       style="fill:none;fill-opacity:0.75;fill-rule:evenodd;stroke:black;stroke-width:2.33466268;stroke-linecap:butt;stroke-linejoin:miter;stroke-miterlimit:4;stroke-dasharray:none;stroke-opacity:1" />
    <path
       id="path9241"
       d="M 553.75845,509.11963 L 163.92743,510.94126"
       style="fill:none;fill-opacity:0.75;fill-rule:evenodd;stroke:black;stroke-width:2.33466268;stroke-linecap:butt;stroke-linejoin:miter;stroke-miterlimit:4;stroke-dasharray:none;stroke-opacity:1" />
    <path
       id="path9243"
       d="M 550.11514,531.89014 L 177.58973,528.24688"
       style="fill:none;fill-opacity:0.75;fill-rule:evenodd;stroke:black;stroke-width:2.33466268;stroke-linecap:butt;stroke-linejoin:miter;stroke-miterlimit:4;stroke-dasharray:none;stroke-opacity:1" />
    <path
       sodipodi:nodetypes="cccc"
       id="path9239"
       d="M 251.08042,602.40062 C 263.05109,576.88816 260.63173,547.59903 220.43458,542.60849 C 165.51196,540.86445 182.79681,585.26525 163.06238,590.88194 C 154.865,593.46261 148.94467,584.20261 141.2027,586.32784"
       style="fill:none;fill-opacity:0.75;fill-rule:evenodd;stroke:black;stroke-width:2.33466268;stroke-linecap:butt;stroke-linejoin:miter;stroke-miterlimit:4;stroke-dasharray:none;stroke-opacity:1" />
    <path
       sodipodi:nodetypes="cssss"
       id="path5729"
       d="M 212.02616,581.66291 C 207.11938,580.60741 199.93036,587.39702 197.41991,593.07405 C 194.90945,598.75113 197.07757,603.31558 201.98436,604.37107 C 206.89116,605.42661 214.53661,602.97325 217.04707,597.29617 C 219.55751,591.61915 216.93296,582.71845 212.02616,581.66291 z "
       style="fill:#00c100;fill-opacity:1;fill-rule:evenodd;stroke:black;stroke-width:2.33466268;stroke-linecap:butt;stroke-linejoin:miter;stroke-miterlimit:4;stroke-dasharray:none;stroke-opacity:1" />
    <path
       sodipodi:nodetypes="cccc"
       id="path3963"
       d="M 143.06035,607.51815 C 145.85122,599.25285 140.91352,581.97099 112.79013,587.55271 C 111.9314,593.99318 113.00481,602.36578 116.01037,606.55206 C 125.34905,607.41085 134.68773,607.9475 143.06035,607.51815 z "
       style="fill:#cd0000;fill-opacity:1;fill-rule:evenodd;stroke:black;stroke-width:2.33466268;stroke-linecap:butt;stroke-linejoin:miter;stroke-miterlimit:4;stroke-dasharray:none;stroke-opacity:1" />
    <g
       transform="matrix(0.399185,-0.224078,0.224078,0.399185,-250.9837,57.08193)"
       id="g17987">
      <path
         sodipodi:type="arc"
         style="opacity:1;fill:white;fill-opacity:1;stroke:black;stroke-width:5.0999999;stroke-miterlimit:4;stroke-dasharray:none;stroke-opacity:1"
         id="path16231"
         sodipodi:cx="107.939"
         sodipodi:cy="1705.4678"
         sodipodi:rx="49.244057"
         sodipodi:ry="51.233719"
         d="M 157.18306,1705.4678 A 49.244057,51.233719 0 1 1 157.16388,1704.0381"
         sodipodi:start="0"
         sodipodi:end="6.2552769"
         sodipodi:open="true"
         transform="matrix(1.201678,0,0,1.201678,-55.09568,-655.4326)" />
      <path
         sodipodi:type="arc"
         style="opacity:1;fill:white;fill-opacity:1;stroke:black;stroke-width:5.0999999;stroke-miterlimit:4;stroke-dasharray:none;stroke-opacity:1"
         id="path17106"
         sodipodi:cx="107.939"
         sodipodi:cy="1705.4678"
         sodipodi:rx="49.244057"
         sodipodi:ry="51.233719"
         d="M 157.18306,1705.4678 A 49.244057,51.233719 0 1 1 157.16388,1704.0381"
         sodipodi:start="0"
         sodipodi:end="6.2552769"
         sodipodi:open="true"
         transform="translate(-9.450889,-290.9876)" />
      <path
         sodipodi:type="arc"
         style="opacity:1;fill:white;fill-opacity:1;stroke:black;stroke-width:5.0999999;stroke-miterlimit:4;stroke-dasharray:none;stroke-opacity:1"
         id="path17110"
         sodipodi:cx="107.939"
         sodipodi:cy="1705.4678"
         sodipodi:rx="49.244057"
         sodipodi:ry="51.233719"
         d="M 157.18306,1705.4678 A 49.244057,51.233719 0 1 1 157.16388,1704.0381"
         sodipodi:start="0"
         sodipodi:end="6.2552769"
         sodipodi:open="true"
         transform="matrix(0.805783,0,0,0.805783,33.28796,65.61122)" />
      <path
         sodipodi:type="arc"
         style="opacity:1;fill:white;fill-opacity:1;stroke:black;stroke-width:5.0999999;stroke-miterlimit:4;stroke-dasharray:none;stroke-opacity:1"
         id="path17108"
         sodipodi:cx="107.939"
         sodipodi:cy="1705.4678"
         sodipodi:rx="49.244057"
         sodipodi:ry="51.233719"
         d="M 157.18306,1705.4678 A 49.244057,51.233719 0 1 1 157.16388,1704.0381"
         sodipodi:start="0"
         sodipodi:end="6.2552769"
         sodipodi:open="true"
         transform="matrix(0.733939,0,0,0.733939,58.21309,209.1464)" />
      <path
         style="fill:white;fill-opacity:1;fill-rule:evenodd;stroke:none;stroke-width:1px;stroke-linecap:butt;stroke-linejoin:miter;stroke-opacity:1"
         d="M 144.25027,1442.3353 C 132.54986,1411.8125 105.34107,1363.6884 81.576016,1351.8059 C 68.86399,1345.4499 29.924858,1374.8523 34.819031,1387.6197 C 45.178909,1414.6455 98.576161,1456.8044 127.33817,1471.1854 C 135.05324,1475.0429 147.80391,1451.6057 144.25027,1442.3353 z "
         id="path17112"
         sodipodi:nodetypes="cssss" />
    </g>
    <g
       transform="matrix(0.338099,-9.64614e-2,9.64614e-2,0.338099,-52.89494,123.4065)"
       id="g17994">
      <path
         sodipodi:type="arc"
         style="opacity:1;fill:white;fill-opacity:1;stroke:black;stroke-width:5.0999999;stroke-miterlimit:4;stroke-dasharray:none;stroke-opacity:1"
         id="path17996"
         sodipodi:cx="107.939"
         sodipodi:cy="1705.4678"
         sodipodi:rx="49.244057"
         sodipodi:ry="51.233719"
         d="M 157.18306,1705.4678 A 49.244057,51.233719 0 1 1 157.16388,1704.0381"
         sodipodi:start="0"
         sodipodi:end="6.2552769"
         sodipodi:open="true"
         transform="matrix(1.201678,0,0,1.201678,-55.09568,-655.4326)" />
      <path
         sodipodi:type="arc"
         style="opacity:1;fill:white;fill-opacity:1;stroke:black;stroke-width:5.0999999;stroke-miterlimit:4;stroke-dasharray:none;stroke-opacity:1"
         id="path17998"
         sodipodi:cx="107.939"
         sodipodi:cy="1705.4678"
         sodipodi:rx="49.244057"
         sodipodi:ry="51.233719"
         d="M 157.18306,1705.4678 A 49.244057,51.233719 0 1 1 157.16388,1704.0381"
         sodipodi:start="0"
         sodipodi:end="6.2552769"
         sodipodi:open="true"
         transform="translate(-9.450889,-290.9876)" />
      <path
         sodipodi:type="arc"
         style="opacity:1;fill:white;fill-opacity:1;stroke:black;stroke-width:5.0999999;stroke-miterlimit:4;stroke-dasharray:none;stroke-opacity:1"
         id="path18000"
         sodipodi:cx="107.939"
         sodipodi:cy="1705.4678"
         sodipodi:rx="49.244057"
         sodipodi:ry="51.233719"
         d="M 157.18306,1705.4678 A 49.244057,51.233719 0 1 1 157.16388,1704.0381"
         sodipodi:start="0"
         sodipodi:end="6.2552769"
         sodipodi:open="true"
         transform="matrix(0.805783,0,0,0.805783,33.28796,65.61122)" />
      <path
         sodipodi:type="arc"
         style="opacity:1;fill:white;fill-opacity:1;stroke:black;stroke-width:5.0999999;stroke-miterlimit:4;stroke-dasharray:none;stroke-opacity:1"
         id="path18002"
         sodipodi:cx="107.939"
         sodipodi:cy="1705.4678"
         sodipodi:rx="49.244057"
         sodipodi:ry="51.233719"
         d="M 157.18306,1705.4678 A 49.244057,51.233719 0 1 1 157.16388,1704.0381"
         sodipodi:start="0"
         sodipodi:end="6.2552769"
         sodipodi:open="true"
         transform="matrix(0.733939,0,0,0.733939,58.21309,209.1464)" />
      <path
         style="fill:white;fill-opacity:1;fill-rule:evenodd;stroke:none;stroke-width:1px;stroke-linecap:butt;stroke-linejoin:miter;stroke-opacity:1"
         d="M 144.25027,1442.3353 C 132.54986,1411.8125 105.34107,1363.6884 81.576016,1351.8059 C 68.86399,1345.4499 29.924858,1374.8523 34.819031,1387.6197 C 45.178909,1414.6455 98.576161,1456.8044 127.33817,1471.1854 C 135.05324,1475.0429 147.80391,1451.6057 144.25027,1442.3353 z "
         id="path18004"
         sodipodi:nodetypes="cssss" />
    </g>
  </g>
</svg>
