<?xml version="1.0" encoding="UTF-8" standalone="no"?>
<!-- Created with Inkscape (http://www.inkscape.org/) -->
<svg
   xmlns:dc="http://purl.org/dc/elements/1.1/"
   xmlns:cc="http://web.resource.org/cc/"
   xmlns:rdf="http://www.w3.org/1999/02/22-rdf-syntax-ns#"
   xmlns:svg="http://www.w3.org/2000/svg"
   xmlns="http://www.w3.org/2000/svg"
   xmlns:sodipodi="http://sodipodi.sourceforge.net/DTD/sodipodi-0.dtd"
   xmlns:inkscape="http://www.inkscape.org/namespaces/inkscape"
   id="svg1936"
   sodipodi:version="0.32"
   inkscape:version="0.45"
   width="475.7608"
   height="364.57758"
   sodipodi:docbase="/home/evans/Desktop"
   sodipodi:docname="professordenis_Kids_Sticks.svg"
   inkscape:output_extension="org.inkscape.output.svg.inkscape"
   sodipodi:modified="true"
   version="1.0">
  <metadata
     id="metadata1941">
    <rdf:RDF>
      <cc:Work
         rdf:about="">
        <dc:format>image/svg+xml</dc:format>
        <dc:type
           rdf:resource="http://purl.org/dc/dcmitype/StillImage" />
      </cc:Work>
    </rdf:RDF>
  </metadata>
  <defs
     id="defs1939">
    <path
       style="fill:#000000;fill-opacity:1;stroke:none;stroke-width:2;stroke-miterlimit:4;stroke-opacity:1"
       d="M 879.42153,467.06032 C 915.60482,522.1763 986.63047,551.14067 1051.5032,537.84757 C 1116.102,526.06913 1170.6094,473.384 1183.9929,409.48765 C 1198.8758,346.68083 1172.7581,277.03541 1120.3191,239.13622 C 1067.2501,198.99623 989.70763,195.00821 932.8276,229.99273 C 876.5593,262.57362 843.68567,329.61421 852.00231,393.61627 C 855.07615,419.81903 864.58867,445.20272 879.42153,467.06032 z M 881.14357,465.9098 C 843.90975,412.46526 843.71314,337.09441 880.13929,283.07157 C 915.06843,228.73773 983.8838,198.8235 1047.6821,210.49182 C 1111.036,220.39388 1165.3839,270.11678 1180.7189,331.91839 C 1197.8783,395.12253 1172.6057,467.08148 1119.204,505.7292 C 1067.7103,545.16274 992.74305,549.70456 936.74703,517.24458 C 914.52168,504.73061 895.35569,486.98661 881.14357,465.9098 z "
       id="path13187"
       sodipodi:nodetypes="cccccccccccccc" />
    <path
       style="fill:#000000;fill-opacity:1;stroke:none;stroke-width:2;stroke-miterlimit:4;stroke-opacity:1"
       d="M 834.6049,-50.033804 C 833.27482,-106.89053 869.33196,-162.04863 921.66568,-184.10753 C 973.06652,-207.11246 1037.3015,-196.06642 1077.946,-157.04469 C 1119.1184,-119.52805 1134.6534,-57.211217 1116.0924,-4.7207119 C 1098.1799,49.672547 1045.3269,90.202261 988.05451,92.921154 C 932.38765,97.055335 876.43472,65.266174 851.07417,15.622175 C 840.45739,-4.5414419 834.79077,-27.250876 834.6049,-50.033804 z M 836.3834,-50.051025 C 836.15537,6.1254099 872.80319,59.923145 924.91305,80.710429 C 976.11664,102.4469 1039.349,90.314428 1078.7403,50.992602 C 1118.6797,13.145214 1132.8189,-48.697564 1113.4922,-100.18491 C 1094.7702,-153.55825 1041.7883,-192.54604 985.18618,-194.12778 C 929.54895,-197.19683 874.3526,-163.99632 850.62317,-113.65247 C 841.02427,-93.933935 836.14006,-71.975931 836.3834,-50.051025 z "
       id="path11075"
       sodipodi:nodetypes="cccccccccccccc" />
  </defs>
  <sodipodi:namedview
     inkscape:window-height="626"
     inkscape:window-width="949"
     inkscape:pageshadow="2"
     inkscape:pageopacity="0.0"
     guidetolerance="10.0"
     gridtolerance="10.0"
     objecttolerance="10.0"
     borderopacity="1.0"
     bordercolor="#666666"
     pagecolor="#ffffff"
     id="base"
     inkscape:zoom="1.1273321"
     inkscape:cx="237.8804"
     inkscape:cy="182.28879"
     inkscape:window-x="71"
     inkscape:window-y="92"
     inkscape:current-layer="svg1936"
     inkscape:showpageshadow="false" />
  <g
     id="g11031"
     transform="matrix(0.79299,0,0,0.8011,597.21988,-139.7186)">
    <path
       transform="translate(159.5222,37.48087)"
       d="M -394.00623 239.66718 A 61.249229 61.249229 0 1 1  -516.50469,239.66718 A 61.249229 61.249229 0 1 1  -394.00623 239.66718 z"
       sodipodi:ry="61.249229"
       sodipodi:rx="61.249229"
       sodipodi:cy="239.66718"
       sodipodi:cx="-455.25546"
       id="path2878"
       style="fill:none;fill-rule:evenodd;stroke:#000000;stroke-width:5;stroke-linecap:butt;stroke-linejoin:miter;stroke-miterlimit:4;stroke-dasharray:none;stroke-opacity:1"
       sodipodi:type="arc" />
    <g
       transform="translate(-138.9035,-103.3009)"
       id="g5563">
      <path
         sodipodi:type="arc"
         style="fill:none;fill-rule:evenodd;stroke:#000000;stroke-width:5;stroke-linecap:butt;stroke-linejoin:miter;stroke-miterlimit:4;stroke-dasharray:none;stroke-opacity:1"
         id="path1990"
         sodipodi:cx="-455.25546"
         sodipodi:cy="239.66718"
         sodipodi:rx="61.249229"
         sodipodi:ry="61.249229"
         d="M -394.00623 239.66718 A 61.249229 61.249229 0 1 1  -516.50469,239.66718 A 61.249229 61.249229 0 1 1  -394.00623 239.66718 z"
         transform="translate(0.178513,129.331)" />
      <g
         id="g5555">
        <g
           transform="translate(0,129.4113)"
           id="g5545">
          <path
             style="fill:none;fill-rule:evenodd;stroke:#000000;stroke-width:5;stroke-linecap:butt;stroke-linejoin:miter;stroke-miterlimit:4.4000001;stroke-dasharray:none;stroke-opacity:1"
             d="M -524.4587,210.56794 C -524.4587,210.56794 -546.41306,181.08364 -562.01292,213.67344 C -575.93642,242.76119 -573.67635,302.56111 -573.67635,302.56111 C -573.67635,302.56111 -563.07417,262.60255 -550.76975,239.60429 C -538.46534,216.60598 -524.4587,210.56794 -524.4587,210.56794 z "
             id="path2882"
             sodipodi:nodetypes="cscsc" />
          <path
             sodipodi:type="arc"
             style="fill:#000000;fill-opacity:1;fill-rule:evenodd;stroke:#000000;stroke-width:5.46104288;stroke-linecap:butt;stroke-linejoin:miter;stroke-miterlimit:4;stroke-dasharray:none;stroke-opacity:1"
             id="path4658"
             sodipodi:cx="-455.25546"
             sodipodi:cy="239.66718"
             sodipodi:rx="61.249229"
             sodipodi:ry="61.249229"
             d="M -394.00623 239.66718 A 61.249229 61.249229 0 1 1  -516.50469,239.66718 A 61.249229 61.249229 0 1 1  -394.00623 239.66718 z"
             transform="matrix(0.122162,4.549379e-2,-8.976846e-2,0.241051,-443.4892,176.0957)" />
        </g>
        <g
           transform="matrix(-1,0,0,1,-910.1539,129.4113)"
           id="g5549">
          <path
             style="fill:none;fill-rule:evenodd;stroke:#000000;stroke-width:5;stroke-linecap:butt;stroke-linejoin:miter;stroke-miterlimit:4.4000001;stroke-dasharray:none;stroke-opacity:1"
             d="M -524.4587,210.56794 C -524.4587,210.56794 -546.41306,181.08364 -562.01292,213.67344 C -575.93642,242.76119 -573.67635,302.56111 -573.67635,302.56111 C -573.67635,302.56111 -563.07417,262.60255 -550.76975,239.60429 C -538.46534,216.60598 -524.4587,210.56794 -524.4587,210.56794 z "
             id="path5551"
             sodipodi:nodetypes="cscsc" />
          <path
             sodipodi:type="arc"
             style="fill:#000000;fill-opacity:1;fill-rule:evenodd;stroke:#000000;stroke-width:5.46104288;stroke-linecap:butt;stroke-linejoin:miter;stroke-miterlimit:4;stroke-dasharray:none;stroke-opacity:1"
             id="path5553"
             sodipodi:cx="-455.25546"
             sodipodi:cy="239.66718"
             sodipodi:rx="61.249229"
             sodipodi:ry="61.249229"
             d="M -394.00623 239.66718 A 61.249229 61.249229 0 1 1  -516.50469,239.66718 A 61.249229 61.249229 0 1 1  -394.00623 239.66718 z"
             transform="matrix(0.122162,4.549379e-2,-8.976846e-2,0.241051,-443.4892,176.0957)" />
        </g>
      </g>
    </g>
    <path
       transform="matrix(0.551893,0,0,0.73146,-236.2739,219.8297)"
       d="M -486.97953,430.53196 L -648.14483,430.53196 L -809.31015,430.53196 L -728.72749,290.95871 L -648.14484,151.38545 L -567.56218,290.9587 L -486.97953,430.53196 z "
       inkscape:randomized="0"
       inkscape:rounded="0"
       inkscape:flatsided="false"
       sodipodi:arg2="1.5707963"
       sodipodi:arg1="0.52359878"
       sodipodi:r2="93.048836"
       sodipodi:r1="186.09767"
       sodipodi:cy="337.48312"
       sodipodi:cx="-648.14484"
       sodipodi:sides="3"
       id="path5573"
       style="fill:none;fill-opacity:1;stroke:#000000;stroke-width:7.86950254;stroke-miterlimit:4;stroke-dasharray:none;stroke-opacity:1"
       sodipodi:type="star" />
    <g
       transform="translate(-7.263395,0)"
       id="g8264">
      <g
         id="g8246"
         transform="translate(10.53639,0)">
        <path
           id="path6462"
           d="M -627.11898,534.13247 L -627.11898,574.1492"
           style="fill:none;fill-rule:evenodd;stroke:#000000;stroke-width:5;stroke-linecap:butt;stroke-linejoin:miter;stroke-miterlimit:4;stroke-dasharray:none;stroke-opacity:1" />
        <path
           transform="matrix(0.543356,0,0,0.292028,-427.8294,465.501)"
           d="M -351.95454 411.5307 A 43.422962 44.794212 0 1 1  -438.80046,411.5307 A 43.422962 44.794212 0 1 1  -351.95454 411.5307 z"
           sodipodi:ry="44.794212"
           sodipodi:rx="43.422962"
           sodipodi:cy="411.5307"
           sodipodi:cx="-395.3775"
           id="path7351"
           style="fill:none;fill-opacity:1;stroke:#000000;stroke-width:12.55207539;stroke-miterlimit:4;stroke-dasharray:none;stroke-opacity:1"
           sodipodi:type="arc" />
      </g>
      <g
         id="g8242"
         transform="matrix(-1,0,0,1,-977.9718,-10.97001)">
        <path
           id="path8238"
           d="M -421.12024,544.68041 L -421.12024,584.69714"
           style="fill:none;fill-rule:evenodd;stroke:#000000;stroke-width:5;stroke-linecap:butt;stroke-linejoin:miter;stroke-miterlimit:4;stroke-dasharray:none;stroke-opacity:1" />
        <path
           transform="matrix(0.543356,0,0,0.292028,-221.8306,476.049)"
           d="M -351.95454 411.5307 A 43.422962 44.794212 0 1 1  -438.80046,411.5307 A 43.422962 44.794212 0 1 1  -351.95454 411.5307 z"
           sodipodi:ry="44.794212"
           sodipodi:rx="43.422962"
           sodipodi:cy="411.5307"
           sodipodi:cx="-395.3775"
           id="path8240"
           style="fill:none;fill-opacity:1;stroke:#000000;stroke-width:12.55207539;stroke-miterlimit:4;stroke-dasharray:none;stroke-opacity:1"
           sodipodi:type="arc" />
      </g>
    </g>
    <g
       id="g8298">
      <g
         id="g8288">
        <path
           id="path8282"
           d="M -627.20359,406.99821 L -693.05031,383.79855"
           style="fill:none;fill-rule:evenodd;stroke:#000000;stroke-width:5;stroke-linecap:butt;stroke-linejoin:miter;stroke-miterlimit:4;stroke-dasharray:none;stroke-opacity:1" />
        <path
           transform="matrix(-0.570644,9.327954e-2,-7.386872e-2,0.547895,-1108.923,237.4382)"
           d="M -735.90493 384.10565 A 24.225441 30.167532 0 1 1  -784.35581,384.10565 A 24.225441 30.167532 0 1 1  -735.90493 384.10565 z"
           sodipodi:ry="30.167532"
           sodipodi:rx="24.225441"
           sodipodi:cy="384.10565"
           sodipodi:cx="-760.13037"
           id="path8284"
           style="fill:none;fill-opacity:1;stroke:#000000;stroke-width:9.04227829;stroke-miterlimit:4;stroke-dasharray:none;stroke-opacity:1"
           sodipodi:type="arc" />
      </g>
      <g
         id="g8292"
         transform="matrix(-1,0,0,1,-1187.961,0)">
        <path
           id="path8294"
           d="M -627.20359,406.99821 L -693.05031,383.79855"
           style="fill:none;fill-rule:evenodd;stroke:#000000;stroke-width:5;stroke-linecap:butt;stroke-linejoin:miter;stroke-miterlimit:4;stroke-dasharray:none;stroke-opacity:1" />
        <path
           transform="matrix(-0.570644,9.327954e-2,-7.386872e-2,0.547895,-1108.923,237.4382)"
           d="M -735.90493 384.10565 A 24.225441 30.167532 0 1 1  -784.35581,384.10565 A 24.225441 30.167532 0 1 1  -735.90493 384.10565 z"
           sodipodi:ry="30.167532"
           sodipodi:rx="24.225441"
           sodipodi:cy="384.10565"
           sodipodi:cx="-760.13037"
           id="path8296"
           style="fill:none;fill-opacity:1;stroke:#000000;stroke-width:9.04227829;stroke-miterlimit:4;stroke-dasharray:none;stroke-opacity:1"
           sodipodi:type="arc" />
      </g>
    </g>
    <g
       id="g10138">
      <path
         style="fill:none;fill-rule:evenodd;stroke:#000000;stroke-width:5;stroke-linecap:butt;stroke-linejoin:miter;stroke-miterlimit:4;stroke-dasharray:none;stroke-opacity:1"
         d="M -297.41757,407.45527 L -363.26429,384.25561"
         id="path8310" />
      <path
         sodipodi:type="arc"
         style="fill:none;fill-opacity:1;stroke:#000000;stroke-width:9.04227829;stroke-miterlimit:4;stroke-dasharray:none;stroke-opacity:1"
         id="path8312"
         sodipodi:cx="-760.13037"
         sodipodi:cy="384.10565"
         sodipodi:rx="24.225441"
         sodipodi:ry="30.167532"
         d="M -735.90493 384.10565 A 24.225441 30.167532 0 1 1  -784.35581,384.10565 A 24.225441 30.167532 0 1 1  -735.90493 384.10565 z"
         transform="matrix(-0.570644,9.327954e-2,-7.386872e-2,0.547895,-779.137,237.8953)" />
      <path
         style="fill:none;fill-rule:evenodd;stroke:#000000;stroke-width:5;stroke-linecap:butt;stroke-linejoin:miter;stroke-miterlimit:4;stroke-dasharray:none;stroke-opacity:1"
         d="M -294.04889,407.45527 L -228.20217,384.25561"
         id="path8316" />
      <path
         sodipodi:type="arc"
         style="fill:none;fill-opacity:1;stroke:#000000;stroke-width:9.04227829;stroke-miterlimit:4;stroke-dasharray:none;stroke-opacity:1"
         id="path8318"
         sodipodi:cx="-760.13037"
         sodipodi:cy="384.10565"
         sodipodi:rx="24.225441"
         sodipodi:ry="30.167532"
         d="M -735.90493 384.10565 A 24.225441 30.167532 0 1 1  -784.35581,384.10565 A 24.225441 30.167532 0 1 1  -735.90493 384.10565 z"
         transform="matrix(0.570644,9.327954e-2,7.386872e-2,0.547895,187.6705,237.8953)" />
    </g>
    <path
       id="path8320"
       d="M -295.73325,338.59704 L -295.73325,456.12513"
       style="fill:none;fill-rule:evenodd;stroke:#000000;stroke-width:4.22563219;stroke-linecap:butt;stroke-linejoin:miter;stroke-miterlimit:4;stroke-dasharray:none;stroke-opacity:1" />
    <g
       transform="matrix(0.811392,0,0,1,-156.446,-14.53797)"
       id="g10120">
      <path
         style="fill:none;fill-rule:evenodd;stroke:#000000;stroke-width:5;stroke-linecap:butt;stroke-linejoin:miter;stroke-miterlimit:4;stroke-dasharray:none;stroke-opacity:1"
         d="M -171.86351,471.58033 L -108.78595,471.58033 L -108.78595,549.28458 L -161.80767,549.28458 L -172.32499,510.03339"
         id="path9231"
         sodipodi:nodetypes="ccccc" />
      <path
         style="fill:none;fill-rule:evenodd;stroke:#000000;stroke-width:5;stroke-linecap:butt;stroke-linejoin:miter;stroke-miterlimit:4;stroke-dasharray:none;stroke-opacity:1"
         d="M -171.46551,471.58033 L -234.54307,471.58033 L -234.54307,549.28458 L -181.52135,549.28458 L -171.00403,510.03339"
         id="path10118"
         sodipodi:nodetypes="ccccc" />
    </g>
    <g
       transform="translate(290.9839,0.703659)"
       id="g10124">
      <g
         id="g10126"
         transform="translate(10.53639,0)">
        <path
           id="path10128"
           d="M -627.11898,534.13247 L -627.11898,574.1492"
           style="fill:none;fill-rule:evenodd;stroke:#000000;stroke-width:5;stroke-linecap:butt;stroke-linejoin:miter;stroke-miterlimit:4;stroke-dasharray:none;stroke-opacity:1" />
        <path
           transform="matrix(0.543356,0,0,0.292028,-427.8294,465.501)"
           d="M -351.95454 411.5307 A 43.422962 44.794212 0 1 1  -438.80046,411.5307 A 43.422962 44.794212 0 1 1  -351.95454 411.5307 z"
           sodipodi:ry="44.794212"
           sodipodi:rx="43.422962"
           sodipodi:cy="411.5307"
           sodipodi:cx="-395.3775"
           id="path10130"
           style="fill:none;fill-opacity:1;stroke:#000000;stroke-width:12.55207539;stroke-miterlimit:4;stroke-dasharray:none;stroke-opacity:1"
           sodipodi:type="arc" />
      </g>
      <g
         id="g10132"
         transform="matrix(-1,0,0,1,-977.9718,-10.97001)">
        <path
           id="path10134"
           d="M -421.12024,544.68041 L -421.12024,584.69714"
           style="fill:none;fill-rule:evenodd;stroke:#000000;stroke-width:5;stroke-linecap:butt;stroke-linejoin:miter;stroke-miterlimit:4;stroke-dasharray:none;stroke-opacity:1" />
        <path
           transform="matrix(0.543356,0,0,0.292028,-221.8306,476.049)"
           d="M -351.95454 411.5307 A 43.422962 44.794212 0 1 1  -438.80046,411.5307 A 43.422962 44.794212 0 1 1  -351.95454 411.5307 z"
           sodipodi:ry="44.794212"
           sodipodi:rx="43.422962"
           sodipodi:cy="411.5307"
           sodipodi:cx="-395.3775"
           id="path10136"
           style="fill:none;fill-opacity:1;stroke:#000000;stroke-width:12.55207539;stroke-miterlimit:4;stroke-dasharray:none;stroke-opacity:1"
           sodipodi:type="arc" />
      </g>
    </g>
    <path
       id="path10144"
       d="M -351.95453,249.72302 L -176.43435,281.71889"
       style="fill:none;fill-rule:evenodd;stroke:#000000;stroke-width:5;stroke-linecap:butt;stroke-linejoin:miter;stroke-miterlimit:4;stroke-dasharray:none;stroke-opacity:1" />
  </g>
</svg>
