<?xml version="1.0" encoding="UTF-8" standalone="no"?>
<!-- Created with Inkscape (http://www.inkscape.org/) -->
<svg
   xmlns:svg="http://www.w3.org/2000/svg"
   xmlns="http://www.w3.org/2000/svg"
   xmlns:xlink="http://www.w3.org/1999/xlink"
   version="1.0"
   width="480"
   height="500"
   id="svg2">
  <defs
     id="defs5">
    <linearGradient
       id="linearGradient5479">
      <stop
         style="stop-color:#ffffff;stop-opacity:0.8041237"
         offset="0"
         id="stop5481" />
      <stop
         style="stop-color:#ffffff;stop-opacity:0"
         offset="1"
         id="stop5483" />
    </linearGradient>
    <radialGradient
       cx="228.39549"
       cy="273.52124"
       r="12.374369"
       fx="228.39549"
       fy="273.52124"
       id="radialGradient5485"
       xlink:href="#linearGradient5479"
       gradientUnits="userSpaceOnUse" />
    <radialGradient
       cx="353.37662"
       cy="147.47948"
       r="44.017399"
       fx="353.37662"
       fy="147.47948"
       id="radialGradient5525"
       xlink:href="#linearGradient5479"
       gradientUnits="userSpaceOnUse"
       gradientTransform="matrix(1,1.13575e-6,-8.666337e-8,7.630495e-2,4.489151,-101.038)" />
  </defs>
  <g
     transform="translate(-24.24064,-26.79955)"
     id="g1931">
    <path
       d="M 159.32322,116.73744 L 215,82.5 C 219.60745,79.666733 221.90625,79.359374 225.0625,79.874999 C 224.96875,76.828124 227.18568,73.182247 231,70.812499 L 283.7266,38.054689 C 287.20784,35.891875 290.66952,36.024598 293.00737,38.054689 L 350.41561,87.905717 C 352.8557,90.024595 352.23861,93.496279 351.87401,96.877134 C 355.75205,96.899231 359.29843,95.962944 362.74578,98.95426 L 418.87238,147.65624 C 422.14375,150.49486 422.60679,156.16362 421.70081,159.41189 C 424.94909,159.21302 429.64236,158.28303 432.74935,161.09127 L 492.49987,215.09655 C 494.79858,217.17423 495.7189,221.02276 493.29537,226.05671 L 423.38019,371.27876 C 422.57664,372.94783 421.01592,374.45109 419.84465,375.34462 L 371.76139,412.02578 C 370.17903,413.23292 369.24233,411.98159 367.69553,411.23029 C 367.38617,412.6887 368.03207,414.19191 366.28131,416.00327 L 338.76812,438.97042 L 130.10765,335.74664 L 152.55829,127.85725 C 153.34106,120.6089 156.398,118.53625 159.32322,116.73744 z "
       style="fill:#000000;fill-opacity:1;fill-rule:evenodd;stroke:none;stroke-width:1px;stroke-linecap:butt;stroke-linejoin:miter;stroke-opacity:1"
       id="path2769" />
    <g
       style="opacity:0.7"
       id="g5545">
      <path
         d="M 490.28257,229.52162 L 469.71784,272.76969 C 468.95378,274.37653 467.14155,276.6025 466.07193,277.41179 L 424.84924,308.60174 C 422.73848,310.19879 421.84785,308.2715 423.29099,305.12483 L 438.70148,271.52339 C 440.01283,268.66409 441.47787,266.25526 443.70312,264.44167 L 486.05145,229.92747 C 488.39381,228.01843 491.32478,227.32983 490.28257,229.52162 z "
         style="fill:#2ac44b;fill-opacity:1;fill-rule:evenodd;stroke:none;stroke-width:0.99999988px;stroke-linecap:butt;stroke-linejoin:miter;stroke-opacity:1"
         id="path2777" />
      <path
         d="M 426.24931,279.79929 L 406.89846,321.23243 C 406.17587,322.77959 404.52627,324.09108 403.14493,325.17857 L 357.55297,361.07166 C 354.786,363.25001 354.38332,360.54602 355.71818,357.3955 L 369.7881,324.18791 C 370.96587,321.40817 372.41755,319.08801 374.58826,317.39146 L 422.18863,280.18879 C 424.47359,278.40295 427.23494,277.68891 426.24931,279.79929 z "
         style="fill:#ffffff;fill-opacity:1;fill-rule:evenodd;stroke:none;stroke-width:0.99999988px;stroke-linecap:butt;stroke-linejoin:miter;stroke-opacity:1"
         id="path3664" />
      <path
         d="M 463.29387,286.30338 L 445.14835,324.35802 C 444.45016,325.82226 443.02777,327.09202 441.7013,328.10679 L 399.45835,360.42347 C 396.30589,362.83516 395.91749,361.35979 397.47783,358.11865 L 413.694,324.43447 C 414.93804,321.85037 416.17047,319.5618 418.25408,317.97795 L 459.43629,286.6734 C 461.62955,285.0062 464.24622,284.30612 463.29387,286.30338 z "
         style="fill:#ffffff;fill-opacity:1;fill-rule:evenodd;stroke:none;stroke-width:0.99999988px;stroke-linecap:butt;stroke-linejoin:miter;stroke-opacity:1"
         id="path3666" />
      <path
         d="M 401.55023,334.31398 L 383.71625,372.36107 C 383.02139,373.84349 381.28619,375.14228 377.96023,377.82238 L 332.48877,414.46371 L 346.9374,377.11225 C 347.98166,374.41269 349.9462,371.99357 352.01904,370.35631 L 397.17757,334.68742 C 399.35952,332.96399 402.49803,332.29192 401.55023,334.31398 z "
         style="fill:#ffff25;fill-opacity:1;fill-rule:evenodd;stroke:none;stroke-width:0.99999988px;stroke-linecap:butt;stroke-linejoin:miter;stroke-opacity:1"
         id="path4553" />
      <path
         d="M 378.32996,386.89255 L 365.82121,415.67481 L 306.80293,461.67805 L 315.81279,432.34543 L 374.65797,385.52866 C 378.0088,382.86277 378.94339,385.50525 378.32996,386.89255 z "
         style="fill:#ffff25;fill-opacity:1;fill-rule:evenodd;stroke:none;stroke-width:0.99999988px;stroke-linecap:butt;stroke-linejoin:miter;stroke-opacity:1"
         id="path4555" />
      <path
         d="M 436.98054,338.88181 L 421.26435,371.8747 C 420.60856,373.25139 416.30391,377.33862 415.05961,378.29596 L 377.56047,407.1472 C 374.60329,409.4224 374.28276,408.05133 375.69872,404.98059 L 389.57274,374.89253 C 390.70166,372.44429 392.68292,370.14588 394.64159,368.657 L 433.35428,339.22965 C 435.41602,337.66242 437.87505,337.00397 436.98054,338.88181 z "
         style="fill:#ff6031;fill-opacity:1;fill-rule:evenodd;stroke:none;stroke-width:0.99999988px;stroke-linecap:butt;stroke-linejoin:miter;stroke-opacity:1"
         id="path4559" />
    </g>
    <g
       id="g5553">
      <path
         d="M 236.20143,72.574157 L 287.51879,40.097955 C 289.4332,38.886417 291.23299,39.515156 292.41501,40.531797 L 343.69166,84.634096 C 345.12523,85.867088 344.90691,88.196699 343.28348,89.286811 L 293.96445,122.40406 C 292.2433,123.55979 288.69599,123.65404 287.27088,122.40406 L 235.82957,77.284447 C 234.34181,76.066002 234.61198,73.753846 236.20143,72.574157 z "
         style="fill:#ffff25;fill-opacity:1;fill-rule:evenodd;stroke:none;stroke-width:1px;stroke-linecap:butt;stroke-linejoin:miter;stroke-opacity:1"
         id="path1891" />
      <path
         d="M 377.33321,197.99504 L 423.37952,163.1637 C 425.17225,161.8076 429.50118,162.23587 430.67249,163.2463 L 485.02701,210.13468 C 486.44758,211.36011 486.83097,214.75426 485.31774,215.96853 L 439.16697,253.00126 C 437.56265,254.28862 432.57947,254.26762 430.78643,252.65341 L 376.61639,203.88603 C 375.19838,202.60944 375.76691,199.17986 377.33321,197.99504 z "
         style="fill:#ffff25;fill-opacity:1;fill-rule:evenodd;stroke:none;stroke-width:1px;stroke-linecap:butt;stroke-linejoin:miter;stroke-opacity:1"
         id="path2781" />
      <path
         d="M 307.27512,135.55018 L 354.84728,102.98937 C 356.70051,101.72092 360.98903,101.91715 362.1581,102.92793 L 412.86347,146.76743 C 415.1705,148.76206 415.01469,152.704 413.44183,153.83687 L 367.01151,187.27887 C 363.7582,189.62211 360.38238,188.76102 357.91905,186.54164 L 307.05046,140.71076 C 305.63427,139.43482 305.65598,136.65841 307.27512,135.55018 z "
         style="fill:#2ac44b;fill-opacity:1;fill-rule:evenodd;stroke:none;stroke-width:1px;stroke-linecap:butt;stroke-linejoin:miter;stroke-opacity:1"
         id="path3668" />
      <path
         d="M 167.35092,117.96655 L 217.04144,84.894173 C 220.25092,82.758049 224.68887,83.278181 226.98756,85.321307 L 275.15261,128.13147 C 277.74992,130.44002 276.92389,133.75601 274.26259,135.64116 L 226.68247,169.34467 C 223.43295,171.64647 219.33812,171.33553 216.91941,169.10059 L 167.12778,123.09216 C 165.73724,121.80727 165.72861,119.04631 167.35092,117.96655 z "
         style="fill:#2ac44b;fill-opacity:1;fill-rule:evenodd;stroke:none;stroke-width:1px;stroke-linecap:butt;stroke-linejoin:miter;stroke-opacity:1"
         id="path1872" />
      <path
         d="M 238.64539,180.95758 L 287.62353,147.39642 C 289.43562,146.15473 293.63666,146.34123 294.77462,147.33633 L 344.37214,190.70706 C 348.70773,194.49833 348.52407,199.65584 345.91601,201.53465 L 289.98501,241.82665 L 237.20295,188.93987 C 234.42569,186.1571 236.43969,182.46899 238.64539,180.95758 z "
         style="fill:#2ac44b;fill-opacity:1;fill-rule:evenodd;stroke:none;stroke-width:1px;stroke-linecap:butt;stroke-linejoin:miter;stroke-opacity:1"
         id="path2765" />
      <path
         d="M 312.61373,248.69271 L 361.4209,212.56818 C 363.18041,211.26589 367.43812,211.4887 368.54702,212.5083 L 421.38299,261.08868 C 423.57129,263.10072 423.4394,266.82115 421.94674,267.97953 L 373.03414,305.93772 C 369.94672,308.3337 366.53401,307.42438 364.17139,305.21911 L 312.39475,256.89082 C 309.90778,254.56949 310.21368,250.46911 312.61373,248.69271 z "
         style="fill:#2ac44b;fill-opacity:1;fill-rule:evenodd;stroke:none;stroke-width:1px;stroke-linecap:butt;stroke-linejoin:miter;stroke-opacity:1"
         id="path2767" />
    </g>
    <path
       d="M 340.75,404.5 C 339.57704,398.82752 337.25,393.5 337.25,393.5 C 337.25,393.5 341.33507,389.66642 339.25,380.25 L 307.945,238.87302 C 305.83296,229.33479 302.81758,222.98099 290.62089,218.36692 L 113.87392,151.5026 C 112.00411,150.14058 103.71122,148.20762 98.100951,151.68566 L 42.75,186 C 38.681174,188.52243 34.481445,192.51195 38.375,204.5 L 57.375,263 C 58.897205,267.68679 66.25,270.18566 66.25,270.18566 C 66.25,270.18566 61.317682,274.12747 63.875,282 L 83,340.875 C 83.871621,343.55822 88.978553,345.51777 88.978553,345.51777 C 88.978553,345.51777 84.987699,348.5132 86.875,354.25 L 102.625,402.125 C 104.23836,407.02909 105.62673,412.64097 110.875,415.75 L 156.875,443 C 162.81685,446.5199 164.375,441 164.375,441 C 164.375,441 162.75607,446.31779 168.625,449.75 L 218,478.625 C 225.13692,482.79874 228.98223,477.37132 228.98223,477.37132 C 228.98223,477.37132 226.13262,481.61537 234.23744,486.35355 L 283.93013,515.40452 C 288.49215,518.07153 292.56447,517.57606 296.75,514.25 L 349.53172,472.30664 C 352.9595,469.58273 353.76751,467.80996 352.13918,459.57872 L 340.75,404.5 z "
       style="fill:#000000;fill-opacity:1;fill-rule:evenodd;stroke:none;stroke-width:1px;stroke-linecap:butt;stroke-linejoin:miter;stroke-opacity:1"
       id="path4565" />
    <g
       style="opacity:0.9"
       id="g5566">
      <path
         d="M 300.24942,241.47739 L 312.49188,298.80476 C 313.2765,302.47884 312.13377,306.56202 309.88014,308.21965 L 257.99072,346.38628 C 252.42977,350.47656 250.32362,347.20566 249.59937,344.30675 L 234.51089,283.91292 C 233.21625,278.73096 236.26665,275.13242 238.84752,273.39177 L 290.90438,238.28235 C 293.62106,236.4501 299.12544,236.2142 300.24942,241.47739 z "
         style="fill:#f03031;fill-opacity:1;fill-rule:evenodd;stroke:none;stroke-width:1px;stroke-linecap:butt;stroke-linejoin:miter;stroke-opacity:1"
         id="path2771" />
      <path
         d="M 320.38146,325.64397 L 332.52883,378.86413 C 333.3258,382.3558 331.05698,387.01727 328.9666,388.67347 L 283.19452,424.9385 C 279.71635,427.69424 275.92859,426.93253 274.95673,422.95609 L 261.5262,368.0043 C 260.31732,363.05809 263.29515,359.76693 265.66031,357.9745 L 311.71117,323.07479 C 314.9027,320.65608 319.23979,320.64208 320.38146,325.64397 z "
         style="fill:#2ac44b;fill-opacity:1;fill-rule:evenodd;stroke:none;stroke-width:1px;stroke-linecap:butt;stroke-linejoin:miter;stroke-opacity:1"
         id="path4561" />
      <path
         d="M 337.92421,407.53655 L 348.86007,459.01111 C 349.59022,462.44791 347.29679,466.1553 345.2428,467.77592 L 298.13193,504.947 C 293.03682,508.96709 290.66346,507.019 289.68256,503.12483 L 276.75213,451.79093 C 275.53201,446.94705 278.47844,443.69782 280.80779,441.95144 L 329.41844,405.50663 C 332.56167,403.15006 336.87826,402.61326 337.92421,407.53655 z "
         style="fill:#ffff25;fill-opacity:1;fill-rule:evenodd;stroke:none;stroke-width:1px;stroke-linecap:butt;stroke-linejoin:miter;stroke-opacity:1"
         id="path4563" />
    </g>
    <g
       style="opacity:1"
       id="g5561">
      <path
         d="M 173.30485,235.48848 L 223.94452,201.80895 C 226.98064,199.78968 234.48399,199.12361 238.19873,200.72989 L 282.48921,219.88135 C 285.92666,221.36773 286.12553,225.31012 283.73779,226.95598 L 230.68177,263.52711 C 226.41354,266.46917 221.48042,266.16084 217.92916,264.54466 L 172.96828,244.08295 C 168.42862,242.01696 168.95554,238.38112 173.30485,235.48848 z "
         style="fill:#355ee5;fill-opacity:1;fill-rule:evenodd;stroke:none;stroke-width:1px;stroke-linecap:butt;stroke-linejoin:miter;stroke-opacity:1"
         id="path2775" />
      <path
         d="M 107.23969,207.6146 L 156.92665,175.21923 C 159.90889,173.27483 167.17925,172.68777 170.84397,174.16567 L 211.1586,190.42359 C 215.93817,192.35108 214.2285,195.4912 211.88949,197.08693 L 160.08739,232.42761 C 155.90627,235.28007 151.59936,236.08054 148.12435,234.51952 L 106.91108,216.00595 C 102.4689,214.01046 101.94742,211.06511 107.23969,207.6146 z "
         style="fill:#ffff25;fill-opacity:1;fill-rule:evenodd;stroke:none;stroke-width:1px;stroke-linecap:butt;stroke-linejoin:miter;stroke-opacity:1"
         id="path4574" />
      <path
         d="M 44.383281,186.27226 L 96.824619,153.89592 C 101.17534,151.20986 106.84086,151.17524 110.41904,152.6226 L 144.54801,166.42762 C 149.21473,168.31528 148.33141,172.43373 145.99454,173.91315 L 95.516432,205.86978 C 91.327992,208.52139 87.374619,209.25385 83.953053,207.79105 L 44.794895,191.05012 C 42.095831,189.89622 41.929395,187.78725 44.383281,186.27226 z "
         style="fill:#f03031;fill-opacity:1;fill-rule:evenodd;stroke:none;stroke-width:1px;stroke-linecap:butt;stroke-linejoin:miter;stroke-opacity:1"
         id="path4576" />
    </g>
    <g
       style="opacity:0.8"
       id="g5571">
      <path
         d="M 192.39769,347.70717 L 206.13651,401.69974 C 207.03834,405.24388 210.11023,408.8893 215.1441,411.26161 L 258.37741,431.63611 C 262.68549,433.66637 266.9347,434.7688 264.72921,426.11667 L 250.94889,372.05652 C 249.66462,367.01835 245.90067,365.51665 243.1686,364.20583 L 198.06207,342.56429 C 195.18622,341.18449 190.87393,341.71891 192.39769,347.70717 z "
         style="fill:#f03031;fill-opacity:1;fill-rule:evenodd;stroke:none;stroke-width:1px;stroke-linecap:butt;stroke-linejoin:miter;stroke-opacity:1"
         id="path2773" />
      <path
         d="M 163.9248,261.4716 L 180.09732,315.89968 C 181.11898,319.33804 183.05788,323.73879 189.66774,326.74936 L 233.54295,346.73303 C 237.79394,348.66921 241.32421,349.03751 239.03729,340.58385 L 224.29529,286.08948 C 222.96362,281.16688 221.68125,275.33774 217.15466,273.4853 L 169.48052,253.97533 C 163.7142,251.61554 161.7464,254.14028 163.9248,261.4716 z "
         style="fill:#ffffff;fill-opacity:1;fill-rule:evenodd;stroke:none;stroke-width:1px;stroke-linecap:butt;stroke-linejoin:miter;stroke-opacity:1"
         id="path4572" />
      <path
         d="M 213.66965,428.40113 L 225.05154,471.59065 C 225.93631,474.94797 228.84185,479.12649 233.36578,481.85517 L 273.69838,506.18243 C 277.57003,508.51768 280.09617,506.7386 278.30455,499.99304 L 265.93389,453.41655 C 264.66681,448.64588 260.83998,446.14631 258.31013,444.77658 L 219.04727,423.51861 C 214.90662,421.27675 212.17474,422.72854 213.66965,428.40113 z "
         style="fill:#355ee5;fill-opacity:1;fill-rule:evenodd;stroke:none;stroke-width:1px;stroke-linecap:butt;stroke-linejoin:miter;stroke-opacity:1"
         id="path4578" />
      <path
         d="M 100.97815,236.8011 L 117.57368,288.40753 C 118.61965,291.66015 120.40488,295.85017 126.68982,298.74221 L 164.43415,316.11039 C 168.47619,317.97034 172.07092,317.52686 169.66769,309.53869 L 154.91105,260.48859 C 153.51165,255.83704 151.67422,250.32454 147.39496,248.48268 L 106.98456,231.08945 C 101.5333,228.74315 98.7479,229.86581 100.97815,236.8011 z "
         style="fill:#355ee5;fill-opacity:1;fill-rule:evenodd;stroke:none;stroke-width:1px;stroke-linecap:butt;stroke-linejoin:miter;stroke-opacity:1"
         id="path4580" />
      <path
         d="M 42.13677,210.49551 L 57.495792,259.9382 C 58.486067,263.12603 60.307271,267.11307 66.402298,270.03522 L 99.248522,285.78275 C 103.16842,287.66208 106.76555,287.14962 104.36171,279.36217 L 89.45591,231.07365 C 88.056141,226.53898 86.304671,221.11719 82.11266,219.34383 L 48.005057,204.91521 C 42.664942,202.65617 40.025288,203.69838 42.13677,210.49551 z "
         style="fill:#2ac44b;fill-opacity:1;fill-rule:evenodd;stroke:none;stroke-width:1px;stroke-linecap:butt;stroke-linejoin:miter;stroke-opacity:1"
         id="path4582" />
      <path
         d="M 129.023,320.08863 L 142.56411,366.59803 C 143.52214,369.88853 145.82278,373.46178 151.94702,376.72548 L 189.568,396.77429 C 193.50667,398.87327 195.39211,397.11149 194.10098,392.09338 L 181.68779,343.84861 C 180.4737,339.12994 179.54989,334.79604 175.34301,332.76141 L 134.3312,312.92633 C 128.45149,310.08264 126.98029,313.07257 129.023,320.08863 z "
         style="fill:#ff6031;fill-opacity:1;fill-rule:evenodd;stroke:none;stroke-width:1px;stroke-linecap:butt;stroke-linejoin:miter;stroke-opacity:1"
         id="path4584" />
      <path
         d="M 68.793838,291.92659 L 83.248481,336.26217 C 84.269368,339.39345 87.31904,345.42348 93.346679,348.27713 L 125.41649,363.45993 C 129.29304,365.2952 130.72619,363.35051 129.1721,358.00053 L 116.40202,314.03939 C 115.09585,309.54287 112.01222,303.03186 107.90211,301.22222 L 74.976202,286.72532 C 70.497741,284.7535 66.617087,285.25002 68.793838,291.92659 z "
         style="fill:#355ee5;fill-opacity:1;fill-rule:evenodd;stroke:none;stroke-width:1px;stroke-linecap:butt;stroke-linejoin:miter;stroke-opacity:1"
         id="path5471" />
      <path
         d="M 150.4126,396.60854 L 162.91675,439.38624 C 163.85671,442.60192 166.97955,446.57243 172.82234,450.01966 L 209.35494,471.57383 C 213.11259,473.79084 215.3242,471.89527 214.03061,466.99793 L 201.8959,421.05744 C 200.67951,416.45233 199.4862,412.84558 195.44907,410.70776 L 155.60171,389.60692 C 147.74219,385.44497 148.26761,389.27038 150.4126,396.60854 z "
         style="fill:#ffffff;fill-opacity:1;fill-rule:evenodd;stroke:none;stroke-width:1px;stroke-linecap:butt;stroke-linejoin:miter;stroke-opacity:1"
         id="path5473" />
      <path
         d="M 91.291886,362.65224 L 103.6507,403.39851 C 104.6213,406.59853 106.99043,411.27556 112.80596,414.74386 L 146.22109,434.67216 C 149.96122,436.90273 151.35979,435.62859 150.03426,430.95859 L 137.43436,386.56758 C 136.13623,381.9941 134.48213,378.47924 130.51171,376.23724 L 95.373596,356.39551 C 89.824376,353.26199 89.222349,355.82911 91.291886,362.65224 z "
         style="fill:#ffff25;fill-opacity:1;fill-rule:evenodd;stroke:none;stroke-width:1px;stroke-linecap:butt;stroke-linejoin:miter;stroke-opacity:1"
         id="path5475" />
    </g>
    <path
       d="M 240.76986,273.52124 C 240.76986,280.35542 235.22967,285.89561 228.39549,285.89561 C 221.56131,285.89561 216.02112,280.35542 216.02112,273.52124 C 216.02112,266.68706 221.56131,261.14687 228.39549,261.14687 C 235.22967,261.14687 240.76986,266.68706 240.76986,273.52124 L 240.76986,273.52124 z "
       transform="matrix(0.445728,0,0,0.445728,126.8431,151.105)"
       style="opacity:1;fill:url(#radialGradient5485);fill-opacity:1;fill-rule:evenodd;stroke:none;stroke-width:1.25;stroke-linecap:round;stroke-linejoin:round;stroke-miterlimit:4;stroke-dasharray:none;stroke-opacity:1"
       id="path5477" />
    <use
       transform="translate(-110.3087,26.16295)"
       style="opacity:0.6"
       id="use5487"
       x="0"
       y="0"
       width="544"
       height="550"
       xlink:href="#path5477" />
    <use
       transform="translate(24.39518,85.55992)"
       style="opacity:0.9"
       id="use5489"
       x="0"
       y="0"
       width="544"
       height="550"
       xlink:href="#path5477" />
    <use
       transform="translate(-87.32769,102.5305)"
       style="opacity:0.4"
       id="use5491"
       x="0"
       y="0"
       width="544"
       height="550"
       xlink:href="#path5477" />
    <use
       transform="translate(-26.16296,135.7645)"
       style="opacity:0.5"
       id="use5493"
       x="0"
       y="0"
       width="544"
       height="550"
       xlink:href="#path5477" />
    <use
       transform="translate(42.42641,167.5843)"
       style="opacity:0.6"
       id="use5495"
       x="0"
       y="0"
       width="544"
       height="550"
       xlink:href="#path5477" />
    <use
       transform="translate(-71.06423,-30.05204)"
       id="use5497"
       x="0"
       y="0"
       width="544"
       height="550"
       xlink:href="#path5477" />
    <use
       transform="translate(-134.7038,-56.56854)"
       style="opacity:1"
       id="use5499"
       x="0"
       y="0"
       width="544"
       height="550"
       xlink:href="#path5477" />
    <use
       transform="translate(-45.25483,53.74012)"
       style="opacity:0.6"
       id="use5501"
       x="0"
       y="0"
       width="544"
       height="550"
       xlink:href="#path5477" />
    <use
       transform="translate(-8.485281,-93.3381)"
       id="use5503"
       x="0"
       y="0"
       width="544"
       height="550"
       xlink:href="#path5477" />
    <use
       transform="translate(60.81118,-143.5427)"
       id="use5505"
       x="0"
       y="0"
       width="544"
       height="550"
       xlink:href="#path5477" />
    <use
       transform="translate(131.5219,-78.48885)"
       id="use5507"
       x="0"
       y="0"
       width="544"
       height="550"
       xlink:href="#path5477" />
    <use
       transform="translate(205.061,-12.72792)"
       id="use5509"
       x="0"
       y="0"
       width="544"
       height="550"
       xlink:href="#path5477" />
    <use
       transform="translate(135.0574,40.30509)"
       id="use5511"
       x="0"
       y="0"
       width="544"
       height="550"
       xlink:href="#path5477" />
    <rect
       width="88.034775"
       height="12.374365"
       x="313.84827"
       y="-95.971329"
       transform="matrix(0.751238,0.660031,-0.660031,0.751238,0,0)"
       style="opacity:0.7;fill:url(#radialGradient5525);fill-opacity:1;fill-rule:evenodd;stroke:none;stroke-width:1.25;stroke-linecap:round;stroke-linejoin:round;stroke-miterlimit:4;stroke-dasharray:none;stroke-opacity:1"
       id="rect5513" />
    <use
       transform="matrix(0.999094,4.254869e-2,-4.254869e-2,0.999094,16.47736,107.1925)"
       style="opacity:0.5"
       id="use5527"
       x="0"
       y="0"
       width="544"
       height="550"
       xlink:href="#rect5513" />
    <use
       transform="translate(76.5,67)"
       style="opacity:0.5"
       id="use5529"
       x="0"
       y="0"
       width="544"
       height="550"
       xlink:href="#rect5513" />
    <use
       transform="translate(-69.5,-65)"
       style="opacity:0.3"
       id="use5531"
       x="0"
       y="0"
       width="544"
       height="550"
       xlink:href="#rect5513" />
    <use
       transform="translate(-138,-15)"
       style="opacity:0.4"
       id="use5533"
       x="0"
       y="0"
       width="544"
       height="550"
       xlink:href="#rect5513" />
    <use
       transform="matrix(0.788789,-0.38434,0.181918,0.891409,-160.9,207.928)"
       style="opacity:0.3"
       id="use5535"
       x="0"
       y="0"
       width="544"
       height="550"
       xlink:href="#rect5513" />
    <use
       transform="matrix(0.795341,-0.370591,0.166418,0.894432,-93.53717,229.6536)"
       style="opacity:0.4"
       id="use5537"
       x="0"
       y="0"
       width="544"
       height="550"
       xlink:href="#rect5513" />
    <use
       transform="matrix(0.788789,-0.38434,0.181918,0.891409,-222.003,181.6749)"
       style="opacity:0.2"
       id="use5539"
       x="0"
       y="0"
       width="544"
       height="550"
       xlink:href="#rect5513" />
    <use
       transform="matrix(0.421936,0.690779,-0.857141,9.28922e-2,362.9568,99.1779)"
       style="opacity:0.9"
       id="use5543"
       x="0"
       y="0"
       width="544"
       height="550"
       xlink:href="#rect5513" />
  </g>
</svg>
